<svg width="45" height="45" viewBox="0 0 45 45" fill="none" xmlns="http://www.w3.org/2000/svg">
<rect width="45" height="45" rx="22.5" fill="#6482ED"/>
<path d="M22.5 8C23.468 8 24.25 8.78203 24.25 9.75V13.25H30.8125C32.9891 13.25 34.75 15.0109 34.75 17.1875V32.0625C34.75 34.2391 32.9891 36 30.8125 36H14.1875C12.0109 36 10.25 34.2391 10.25 32.0625V17.1875C10.25 15.0109 12.0109 13.25 14.1875 13.25H20.75V9.75C20.75 8.78203 21.532 8 22.5 8ZM16.375 29C15.8937 29 15.5 29.3937 15.5 29.875C15.5 30.3563 15.8937 30.75 16.375 30.75H18.125C18.6063 30.75 19 30.3563 19 29.875C19 29.3937 18.6063 29 18.125 29H16.375ZM21.625 29C21.1437 29 20.75 29.3937 20.75 29.875C20.75 30.3563 21.1437 30.75 21.625 30.75H23.375C23.8563 30.75 24.25 30.3563 24.25 29.875C24.25 29.3937 23.8563 29 23.375 29H21.625ZM26.875 29C26.3937 29 26 29.3937 26 29.875C26 30.3563 26.3937 30.75 26.875 30.75H28.625C29.1063 30.75 29.5 30.3563 29.5 29.875C29.5 29.3937 29.1063 29 28.625 29H26.875ZM19.4375 22C19.4375 21.4198 19.207 20.8634 18.7968 20.4532C18.3866 20.043 17.8302 19.8125 17.25 19.8125C16.6698 19.8125 16.1134 20.043 15.7032 20.4532C15.293 20.8634 15.0625 21.4198 15.0625 22C15.0625 22.5802 15.293 23.1366 15.7032 23.5468C16.1134 23.957 16.6698 24.1875 17.25 24.1875C17.8302 24.1875 18.3866 23.957 18.7968 23.5468C19.207 23.1366 19.4375 22.5802 19.4375 22ZM27.75 24.1875C28.3302 24.1875 28.8866 23.957 29.2968 23.5468C29.707 23.1366 29.9375 22.5802 29.9375 22C29.9375 21.4198 29.707 20.8634 29.2968 20.4532C28.8866 20.043 28.3302 19.8125 27.75 19.8125C27.1698 19.8125 26.6134 20.043 26.2032 20.4532C25.793 20.8634 25.5625 21.4198 25.5625 22C25.5625 22.5802 25.793 23.1366 26.2032 23.5468C26.6134 23.957 27.1698 24.1875 27.75 24.1875ZM7.625 20.25H8.5V30.75H7.625C6.17578 30.75 5 29.5742 5 28.125V22.875C5 21.4258 6.17578 20.25 7.625 20.25ZM37.375 20.25C38.8242 20.25 40 21.4258 40 22.875V28.125C40 29.5742 38.8242 30.75 37.375 30.75H36.5V20.25H37.375Z" fill="white"/>
</svg>
