<svg width="32" height="32" viewBox="0 0 32 32" fill="none" xmlns="http://www.w3.org/2000/svg">
<rect width="32" height="32" rx="16" fill="#6482ED"/>
<path d="M26.1455 19.1185H22.7931L22.0724 23L19.7443 19.1185H10.9205V16.899H19.9886V9.92975H26.1455V19.1185ZM19.225 7V16.1888H10.4017L8.07305 20.0716L7.35189 16.1888H4V7H19.225ZM9.38001 13.1944C9.38001 12.7443 8.79502 12.519 8.45291 12.8372C8.1108 13.1554 8.35301 13.6995 8.83692 13.6995C9.13689 13.6995 9.38001 13.4734 9.38001 13.1944ZM12.2887 13.1944C12.2855 12.7452 11.7007 12.5231 11.3604 12.8418C11.02 13.1605 11.2627 13.7029 11.7457 13.7029C12.047 13.7029 12.2908 13.4747 12.2887 13.1944ZM15.1975 13.1944C15.1975 12.7443 14.6125 12.519 14.2704 12.8372C13.9283 13.1554 14.1705 13.6995 14.6544 13.6995C14.9543 13.6995 15.1975 13.4734 15.1975 13.1944Z" fill="white"/>
</svg>
