<svg width="29" height="38" viewBox="0 0 29 38" fill="none" xmlns="http://www.w3.org/2000/svg">
<path d="M8.71429 5.5H4.85714C3.83416 5.5 2.85309 5.90638 2.12973 6.62973C1.40638 7.35309 1 8.33416 1 9.35714V32.5C1 33.523 1.40638 34.5041 2.12973 35.2274C2.85309 35.9508 3.83416 36.3571 4.85714 36.3571H24.1429C25.1658 36.3571 26.1469 35.9508 26.8703 35.2274C27.5936 34.5041 28 33.523 28 32.5V9.35714C28 8.33416 27.5936 7.35309 26.8703 6.62973C26.1469 5.90638 25.1658 5.5 24.1429 5.5H20.2857" stroke="black" stroke-width="2" stroke-linecap="round" stroke-linejoin="round"/>
<path d="M8.71436 28.6426V18.9997M14.5001 28.6426V26.714M20.2858 28.6426V22.8569M8.71436 5.49972C8.71436 4.47674 9.12073 3.49566 9.84409 2.77231C10.5674 2.04895 11.5485 1.64258 12.5715 1.64258H16.4286C17.4516 1.64258 18.4327 2.04895 19.1561 2.77231C19.8794 3.49566 20.2858 4.47674 20.2858 5.49972C20.2858 6.5227 19.8794 7.50378 19.1561 8.22713C18.4327 8.95049 17.4516 9.35686 16.4286 9.35686H12.5715C11.5485 9.35686 10.5674 8.95049 9.84409 8.22713C9.12073 7.50378 8.71436 6.5227 8.71436 5.49972Z" stroke="black" stroke-width="2" stroke-linecap="round" stroke-linejoin="round"/>
</svg>
