<svg width="25" height="25" viewBox="0 0 25 25" fill="none" xmlns="http://www.w3.org/2000/svg">
<path fill-rule="evenodd" clip-rule="evenodd" d="M12.5 1.37342e-10C14.1415 -7.69452e-06 15.7669 0.323308 17.2835 0.951487C18.8001 1.57967 20.1781 2.50041 21.3388 3.66114C22.4996 4.82187 23.4203 6.19986 24.0485 7.71643C24.6767 9.233 25 10.8584 25 12.5C25 19.4035 19.4035 25 12.5 25C5.59646 25 0 19.4035 0 12.5C0 5.59646 5.59646 1.37342e-10 12.5 1.37342e-10ZM13.75 13.75H11.25C8.15536 13.75 5.49855 15.6242 4.35263 18.2997C6.16576 20.8421 9.13927 22.5 12.5 22.5C15.8607 22.5 18.8342 20.8421 20.6474 18.2995C19.5014 15.6242 16.8446 13.75 13.75 13.75ZM12.5 3.75C10.4289 3.75 8.74997 5.42894 8.74997 7.49999C8.74997 9.57105 10.4289 11.25 12.5 11.25C14.571 11.25 16.25 9.57105 16.25 7.49999C16.25 5.42894 14.5711 3.75 12.5 3.75Z" fill="black"/>
</svg>
